# MagicaVoxel @ Ephtracy

# group
o 

# material
mtllib TankSuperior.mtl
usemtl palette

# normals
vn -1 0 0
vn 1 0 0
vn 0 0 1
vn 0 0 -1
vn 0 -1 0
vn 0 1 0

# texcoords
vt 0.908203 0.5
vt 0.994141 0.5

# verts
v 0.4 2.1 -0.5
v 0.4 2.1 -1.1
v 0.4 2.4 -0.5
v 0.4 2.4 -1.1
v 0.5 2 -0.5
v 0.5 2 -1
v 0.5 2.1 -0.4
v 0.5 2.1 -0.5
v 0.5 2.1 -1
v 0.5 2.1 -1.1
v 0.5 2.1 -1.2
v 0.5 2.4 -0.4
v 0.5 2.4 -0.5
v 0.5 2.4 -0.6
v 0.5 2.4 -1
v 0.5 2.4 -1.1
v 0.5 2.4 -1.2
v 0.5 2.5 -0.6
v 0.5 2.5 -1
v 0.6 2 -0.4
v 0.6 2 -0.5
v 0.6 2 -1
v 0.6 2 -1.1
v 0.6 2.1 -0.3
v 0.6 2.1 -0.4
v 0.6 2.1 -0.5
v 0.6 2.1 -1
v 0.6 2.1 -1.1
v 0.6 2.2 -1.2
v 0.6 2.2 -1.3
v 0.6 2.4 -0.3
v 0.6 2.4 -0.4
v 0.6 2.4 -0.5
v 0.6 2.4 -0.6
v 0.6 2.4 -1
v 0.6 2.4 -1.1
v 0.6 2.4 -1.2
v 0.6 2.4 -1.3
v 0.6 2.5 -0.5
v 0.6 2.5 -0.6
v 0.6 2.5 -1
v 0.6 2.5 -1.1
v 0.7 2.2 -1.3
v 0.7 2.2 -2
v 0.7 2.2 -2.1
v 0.7 2.4 -0.4
v 0.7 2.4 -0.5
v 0.7 2.4 -1.1
v 0.7 2.4 -1.2
v 0.7 2.4 -1.3
v 0.7 2.4 -2
v 0.7 2.4 -2.1
v 0.7 2.5 -0.4
v 0.7 2.5 -0.5
v 0.7 2.5 -1.1
v 0.7 2.5 -1.2
v 1.3 2.2 -0.9
v 1.3 2.2 -1.3
v 1.3 2.3 -0.8
v 1.3 2.3 -0.9
v 1.3 2.3 -1.3
v 1.3 2.4 -0.8
v 1.3 2.4 -0.9
v 0.9 2.2 -1.3
v 0.9 2.2 -2
v 0.9 2.2 -2.1
v 0.9 2.4 -0.4
v 0.9 2.4 -0.5
v 0.9 2.4 -1.1
v 0.9 2.4 -1.2
v 0.9 2.4 -1.3
v 0.9 2.4 -2
v 0.9 2.4 -2.1
v 0.9 2.5 -0.4
v 0.9 2.5 -0.5
v 0.9 2.5 -1.1
v 0.9 2.5 -1.2
v 1 2 -0.4
v 1 2 -0.5
v 1 2 -1
v 1 2 -1.1
v 1 2.1 -0.3
v 1 2.1 -0.4
v 1 2.1 -0.5
v 1 2.1 -1
v 1 2.1 -1.1
v 1 2.2 -1.2
v 1 2.2 -1.3
v 1 2.4 -0.3
v 1 2.4 -0.4
v 1 2.4 -0.5
v 1 2.4 -0.6
v 1 2.4 -1
v 1 2.4 -1.1
v 1 2.4 -1.2
v 1 2.4 -1.3
v 1 2.5 -0.5
v 1 2.5 -0.6
v 1 2.5 -1
v 1 2.5 -1.1
v 1.1 2 -0.5
v 1.1 2 -1
v 1.1 2.1 -0.4
v 1.1 2.1 -0.5
v 1.1 2.1 -1
v 1.1 2.1 -1.1
v 1.1 2.1 -1.2
v 1.1 2.4 -0.4
v 1.1 2.4 -0.5
v 1.1 2.4 -0.6
v 1.1 2.4 -1
v 1.1 2.4 -1.1
v 1.1 2.4 -1.2
v 1.1 2.5 -0.6
v 1.1 2.5 -1
v 1.2 2.1 -0.5
v 1.2 2.1 -1.1
v 1.2 2.2 -0.7
v 1.2 2.2 -0.9
v 1.2 2.3 -0.7
v 1.2 2.3 -0.9
v 1.2 2.4 -0.5
v 1.2 2.4 -1.1
v 1.4 2.2 -0.7
v 1.4 2.2 -0.8
v 1.4 2.2 -0.9
v 1.4 2.2 -1.3
v 1.4 2.3 -0.7
v 1.4 2.3 -0.8
v 1.4 2.3 -0.9
v 1.4 2.3 -1.3
v 1.4 2.4 -0.8
v 1.4 2.4 -0.9
v 1.5 2.2 -0.8
v 1.5 2.2 -0.9
v 1.5 2.3 -0.8
v 1.5 2.3 -0.9
v 0.6 2.1 -0.3
v 0.6 2.4 -0.3
v 1 2.1 -0.3
v 1 2.4 -0.3
v 0.5 2.1 -0.4
v 0.5 2.4 -0.4
v 0.6 2 -0.4
v 0.6 2.1 -0.4
v 0.6 2.4 -0.4
v 0.7 2.4 -0.4
v 0.7 2.5 -0.4
v 0.9 2.4 -0.4
v 0.9 2.5 -0.4
v 1 2 -0.4
v 1 2.1 -0.4
v 1 2.4 -0.4
v 1.1 2.1 -0.4
v 1.1 2.4 -0.4
v 0.4 2.1 -0.5
v 0.4 2.4 -0.5
v 0.5 2 -0.5
v 0.5 2.1 -0.5
v 0.5 2.4 -0.5
v 0.6 2 -0.5
v 0.6 2.1 -0.5
v 0.6 2.4 -0.5
v 0.6 2.5 -0.5
v 0.7 2.4 -0.5
v 0.7 2.5 -0.5
v 0.9 2.4 -0.5
v 0.9 2.5 -0.5
v 1 2 -0.5
v 1 2.1 -0.5
v 1 2.4 -0.5
v 1 2.5 -0.5
v 1.1 2 -0.5
v 1.1 2.1 -0.5
v 1.1 2.4 -0.5
v 1.2 2.1 -0.5
v 1.2 2.4 -0.5
v 0.5 2.4 -0.6
v 0.5 2.5 -0.6
v 0.6 2.4 -0.6
v 0.6 2.5 -0.6
v 1 2.4 -0.6
v 1 2.5 -0.6
v 1.1 2.4 -0.6
v 1.1 2.5 -0.6
v 1.2 2.2 -0.7
v 1.2 2.3 -0.7
v 1.4 2.2 -0.7
v 1.4 2.3 -0.7
v 1.3 2.3 -0.8
v 1.3 2.4 -0.8
v 1.4 2.2 -0.8
v 1.4 2.3 -0.8
v 1.4 2.4 -0.8
v 1.5 2.2 -0.8
v 1.5 2.3 -0.8
v 1.2 2.2 -0.9
v 1.2 2.3 -0.9
v 1.3 2.2 -0.9
v 1.3 2.3 -0.9
v 1.3 2.4 -0.9
v 1.4 2.2 -0.9
v 1.4 2.3 -0.9
v 1.4 2.4 -0.9
v 1.5 2.2 -0.9
v 1.5 2.3 -0.9
v 0.5 2 -1
v 0.5 2.1 -1
v 0.5 2.4 -1
v 0.5 2.5 -1
v 0.6 2 -1
v 0.6 2.1 -1
v 0.6 2.4 -1
v 0.6 2.5 -1
v 1 2 -1
v 1 2.1 -1
v 1 2.4 -1
v 1 2.5 -1
v 1.1 2 -1
v 1.1 2.1 -1
v 1.1 2.4 -1
v 1.1 2.5 -1
v 0.4 2.1 -1.1
v 0.4 2.4 -1.1
v 0.5 2.1 -1.1
v 0.5 2.4 -1.1
v 0.6 2 -1.1
v 0.6 2.1 -1.1
v 0.6 2.4 -1.1
v 0.6 2.5 -1.1
v 0.7 2.4 -1.1
v 0.7 2.5 -1.1
v 0.9 2.4 -1.1
v 0.9 2.5 -1.1
v 1 2 -1.1
v 1 2.1 -1.1
v 1 2.4 -1.1
v 1 2.5 -1.1
v 1.1 2.1 -1.1
v 1.1 2.4 -1.1
v 1.2 2.1 -1.1
v 1.2 2.4 -1.1
v 0.5 2.1 -1.2
v 0.5 2.4 -1.2
v 0.6 2.2 -1.2
v 0.6 2.4 -1.2
v 0.7 2.4 -1.2
v 0.7 2.5 -1.2
v 0.9 2.4 -1.2
v 0.9 2.5 -1.2
v 1 2.2 -1.2
v 1 2.4 -1.2
v 1.1 2.1 -1.2
v 1.1 2.4 -1.2
v 0.6 2.2 -1.3
v 0.6 2.4 -1.3
v 0.7 2.2 -1.3
v 0.7 2.4 -1.3
v 0.9 2.2 -1.3
v 0.9 2.4 -1.3
v 1 2.2 -1.3
v 1 2.4 -1.3
v 1.3 2.2 -1.3
v 1.3 2.3 -1.3
v 1.4 2.2 -1.3
v 1.4 2.3 -1.3
v 0.7 2.2 -2.1
v 0.7 2.4 -2.1
v 0.9 2.2 -2.1
v 0.9 2.4 -2.1
v 0.6 2 -0.4
v 1 2 -0.4
v 0.5 2 -0.5
v 0.6 2 -0.5
v 1 2 -0.5
v 1.1 2 -0.5
v 0.5 2 -1
v 0.6 2 -1
v 1 2 -1
v 1.1 2 -1
v 0.6 2 -1.1
v 1 2 -1.1
v 0.6 2.1 -0.3
v 1 2.1 -0.3
v 0.5 2.1 -0.4
v 0.6 2.1 -0.4
v 1 2.1 -0.4
v 1.1 2.1 -0.4
v 0.4 2.1 -0.5
v 0.5 2.1 -0.5
v 0.6 2.1 -0.5
v 1 2.1 -0.5
v 1.1 2.1 -0.5
v 1.2 2.1 -0.5
v 0.5 2.1 -1
v 0.6 2.1 -1
v 1 2.1 -1
v 1.1 2.1 -1
v 0.4 2.1 -1.1
v 0.5 2.1 -1.1
v 0.6 2.1 -1.1
v 1 2.1 -1.1
v 1.1 2.1 -1.1
v 1.2 2.1 -1.1
v 0.5 2.1 -1.2
v 1.1 2.1 -1.2
v 1.2 2.2 -0.7
v 1.4 2.2 -0.7
v 1.4 2.2 -0.8
v 1.5 2.2 -0.8
v 1.2 2.2 -0.9
v 1.3 2.2 -0.9
v 1.4 2.2 -0.9
v 1.5 2.2 -0.9
v 0.6 2.2 -1.2
v 1 2.2 -1.2
v 0.6 2.2 -1.3
v 0.7 2.2 -1.3
v 0.9 2.2 -1.3
v 1 2.2 -1.3
v 1.3 2.2 -1.3
v 1.4 2.2 -1.3
v 0.7 2.2 -2
v 0.9 2.2 -2
v 0.7 2.2 -2.1
v 0.9 2.2 -2.1
v 1.2 2.3 -0.7
v 1.4 2.3 -0.7
v 1.3 2.3 -0.8
v 1.4 2.3 -0.8
v 1.5 2.3 -0.8
v 1.2 2.3 -0.9
v 1.3 2.3 -0.9
v 1.4 2.3 -0.9
v 1.5 2.3 -0.9
v 1.3 2.3 -1.3
v 1.4 2.3 -1.3
v 0.6 2.4 -0.3
v 1 2.4 -0.3
v 0.5 2.4 -0.4
v 0.6 2.4 -0.4
v 0.7 2.4 -0.4
v 0.9 2.4 -0.4
v 1 2.4 -0.4
v 1.1 2.4 -0.4
v 0.4 2.4 -0.5
v 0.5 2.4 -0.5
v 0.6 2.4 -0.5
v 0.7 2.4 -0.5
v 0.9 2.4 -0.5
v 1 2.4 -0.5
v 1.1 2.4 -0.5
v 1.2 2.4 -0.5
v 0.5 2.4 -0.6
v 0.6 2.4 -0.6
v 1 2.4 -0.6
v 1.1 2.4 -0.6
v 1.3 2.4 -0.8
v 1.4 2.4 -0.8
v 1.3 2.4 -0.9
v 1.4 2.4 -0.9
v 0.5 2.4 -1
v 0.6 2.4 -1
v 1 2.4 -1
v 1.1 2.4 -1
v 0.4 2.4 -1.1
v 0.5 2.4 -1.1
v 0.6 2.4 -1.1
v 0.7 2.4 -1.1
v 0.9 2.4 -1.1
v 1 2.4 -1.1
v 1.1 2.4 -1.1
v 1.2 2.4 -1.1
v 0.5 2.4 -1.2
v 0.6 2.4 -1.2
v 0.7 2.4 -1.2
v 0.9 2.4 -1.2
v 1 2.4 -1.2
v 1.1 2.4 -1.2
v 0.6 2.4 -1.3
v 0.7 2.4 -1.3
v 0.9 2.4 -1.3
v 1 2.4 -1.3
v 0.7 2.4 -2
v 0.9 2.4 -2
v 0.7 2.4 -2.1
v 0.9 2.4 -2.1
v 0.7 2.5 -0.4
v 0.9 2.5 -0.4
v 0.6 2.5 -0.5
v 0.7 2.5 -0.5
v 0.9 2.5 -0.5
v 1 2.5 -0.5
v 0.5 2.5 -0.6
v 0.6 2.5 -0.6
v 0.7 2.5 -0.6
v 0.9 2.5 -0.6
v 1 2.5 -0.6
v 1.1 2.5 -0.6
v 0.6 2.5 -0.7
v 0.7 2.5 -0.7
v 0.9 2.5 -0.7
v 1 2.5 -0.7
v 0.6 2.5 -0.9
v 0.7 2.5 -0.9
v 0.9 2.5 -0.9
v 1 2.5 -0.9
v 0.5 2.5 -1
v 0.6 2.5 -1
v 0.7 2.5 -1
v 0.9 2.5 -1
v 1 2.5 -1
v 1.1 2.5 -1
v 0.6 2.5 -1.1
v 0.7 2.5 -1.1
v 0.9 2.5 -1.1
v 1 2.5 -1.1
v 0.7 2.5 -1.2
v 0.9 2.5 -1.2

# faces
f 3/1/1 2/1/1 1/1/1
f 4/1/1 2/1/1 3/1/1
f 8/2/1 6/2/1 5/2/1
f 9/2/1 6/2/1 8/2/1
f 12/1/1 8/1/1 7/1/1
f 13/1/1 8/1/1 12/1/1
f 16/1/1 11/1/1 10/1/1
f 17/1/1 11/1/1 16/1/1
f 18/1/1 15/1/1 14/1/1
f 19/1/1 15/1/1 18/1/1
f 25/2/1 21/2/1 20/2/1
f 26/2/1 21/2/1 25/2/1
f 27/2/1 23/2/1 22/2/1
f 28/2/1 23/2/1 27/2/1
f 31/1/1 25/1/1 24/1/1
f 32/1/1 25/1/1 31/1/1
f 37/1/1 30/1/1 29/1/1
f 38/1/1 30/1/1 37/1/1
f 39/1/1 34/1/1 33/1/1
f 40/1/1 34/1/1 39/1/1
f 41/1/1 36/1/1 35/1/1
f 42/1/1 36/1/1 41/1/1
f 50/1/1 44/1/1 43/1/1
f 51/2/1 45/2/1 44/2/1
f 51/1/1 44/1/1 50/1/1
f 52/2/1 45/2/1 51/2/1
f 53/1/1 47/1/1 46/1/1
f 54/1/1 47/1/1 53/1/1
f 55/1/1 49/1/1 48/1/1
f 56/1/1 49/1/1 55/1/1
f 60/2/1 58/2/1 57/2/1
f 61/2/1 58/2/1 60/2/1
f 62/2/1 60/2/1 59/2/1
f 63/2/1 60/2/1 62/2/1
f 64/1/2 65/1/2 71/1/2
f 65/2/2 66/2/2 72/2/2
f 71/1/2 65/1/2 72/1/2
f 72/2/2 66/2/2 73/2/2
f 67/1/2 68/1/2 74/1/2
f 74/1/2 68/1/2 75/1/2
f 69/1/2 70/1/2 76/1/2
f 76/1/2 70/1/2 77/1/2
f 78/2/2 79/2/2 83/2/2
f 83/2/2 79/2/2 84/2/2
f 80/2/2 81/2/2 85/2/2
f 85/2/2 81/2/2 86/2/2
f 82/1/2 83/1/2 89/1/2
f 89/1/2 83/1/2 90/1/2
f 87/1/2 88/1/2 95/1/2
f 95/1/2 88/1/2 96/1/2
f 91/1/2 92/1/2 97/1/2
f 97/1/2 92/1/2 98/1/2
f 93/1/2 94/1/2 99/1/2
f 99/1/2 94/1/2 100/1/2
f 101/2/2 102/2/2 104/2/2
f 104/2/2 102/2/2 105/2/2
f 103/1/2 104/1/2 108/1/2
f 108/1/2 104/1/2 109/1/2
f 106/1/2 107/1/2 112/1/2
f 112/1/2 107/1/2 113/1/2
f 110/1/2 111/1/2 114/1/2
f 114/1/2 111/1/2 115/1/2
f 116/1/2 117/1/2 118/1/2
f 118/1/2 117/1/2 119/1/2
f 116/1/2 118/1/2 120/1/2
f 119/1/2 117/1/2 121/1/2
f 116/1/2 120/1/2 122/1/2
f 120/1/2 121/1/2 122/1/2
f 121/1/2 117/1/2 123/1/2
f 122/1/2 121/1/2 123/1/2
f 124/2/2 125/2/2 128/2/2
f 128/2/2 125/2/2 129/2/2
f 126/2/2 127/2/2 130/2/2
f 130/2/2 127/2/2 131/2/2
f 129/2/2 130/2/2 132/2/2
f 132/2/2 130/2/2 133/2/2
f 134/2/2 135/2/2 136/2/2
f 136/2/2 135/2/2 137/2/2
f 140/1/3 139/1/3 138/1/3
f 141/1/3 139/1/3 140/1/3
f 145/1/3 143/1/3 142/1/3
f 146/1/3 143/1/3 145/1/3
f 149/1/3 148/1/3 147/1/3
f 150/1/3 148/1/3 149/1/3
f 151/2/3 145/2/3 144/2/3
f 152/2/3 145/2/3 151/2/3
f 154/1/3 153/1/3 152/1/3
f 155/1/3 153/1/3 154/1/3
f 159/1/3 157/1/3 156/1/3
f 160/1/3 157/1/3 159/1/3
f 161/2/3 159/2/3 158/2/3
f 162/2/3 159/2/3 161/2/3
f 165/1/3 164/1/3 163/1/3
f 166/1/3 164/1/3 165/1/3
f 171/1/3 168/1/3 167/1/3
f 172/1/3 168/1/3 171/1/3
f 173/2/3 170/2/3 169/2/3
f 174/2/3 170/2/3 173/2/3
f 176/1/3 175/1/3 174/1/3
f 177/1/3 175/1/3 176/1/3
f 180/1/3 179/1/3 178/1/3
f 181/1/3 179/1/3 180/1/3
f 184/1/3 183/1/3 182/1/3
f 185/1/3 183/1/3 184/1/3
f 188/2/3 187/2/3 186/2/3
f 189/2/3 187/2/3 188/2/3
f 193/2/3 191/2/3 190/2/3
f 194/2/3 191/2/3 193/2/3
f 195/2/3 193/2/3 192/2/3
f 196/2/3 193/2/3 195/2/3
f 197/2/4 198/2/4 199/2/4
f 199/2/4 198/2/4 200/2/4
f 200/2/4 201/2/4 203/2/4
f 203/2/4 201/2/4 204/2/4
f 202/2/4 203/2/4 205/2/4
f 205/2/4 203/2/4 206/2/4
f 207/2/4 208/2/4 211/2/4
f 211/2/4 208/2/4 212/2/4
f 209/1/4 210/1/4 213/1/4
f 213/1/4 210/1/4 214/1/4
f 215/2/4 216/2/4 219/2/4
f 219/2/4 216/2/4 220/2/4
f 217/1/4 218/1/4 221/1/4
f 221/1/4 218/1/4 222/1/4
f 223/1/4 224/1/4 225/1/4
f 225/1/4 224/1/4 226/1/4
f 229/1/4 230/1/4 231/1/4
f 231/1/4 230/1/4 232/1/4
f 227/2/4 228/2/4 235/2/4
f 235/2/4 228/2/4 236/2/4
f 233/1/4 234/1/4 237/1/4
f 237/1/4 234/1/4 238/1/4
f 239/1/4 240/1/4 241/1/4
f 241/1/4 240/1/4 242/1/4
f 243/1/4 244/1/4 245/1/4
f 245/1/4 244/1/4 246/1/4
f 247/1/4 248/1/4 249/1/4
f 249/1/4 248/1/4 250/1/4
f 243/1/4 245/1/4 251/1/4
f 243/1/4 251/1/4 253/1/4
f 251/1/4 252/1/4 253/1/4
f 253/1/4 252/1/4 254/1/4
f 255/1/4 256/1/4 257/1/4
f 257/1/4 256/1/4 258/1/4
f 259/1/4 260/1/4 261/1/4
f 261/1/4 260/1/4 262/1/4
f 263/2/4 264/2/4 265/2/4
f 265/2/4 264/2/4 266/2/4
f 267/2/4 268/2/4 269/2/4
f 269/2/4 268/2/4 270/2/4
f 274/2/5 272/2/5 271/2/5
f 275/2/5 272/2/5 274/2/5
f 277/2/5 274/2/5 273/2/5
f 277/2/5 276/2/5 275/2/5
f 277/2/5 275/2/5 274/2/5
f 278/2/5 276/2/5 277/2/5
f 279/2/5 276/2/5 278/2/5
f 280/2/5 276/2/5 279/2/5
f 281/2/5 279/2/5 278/2/5
f 282/2/5 279/2/5 281/2/5
f 286/1/5 284/1/5 283/1/5
f 287/1/5 284/1/5 286/1/5
f 290/1/5 286/1/5 285/1/5
f 291/1/5 286/1/5 290/1/5
f 292/1/5 288/1/5 287/1/5
f 293/1/5 288/1/5 292/1/5
f 295/1/5 290/1/5 289/1/5
f 298/1/5 294/1/5 293/1/5
f 299/1/5 296/1/5 295/1/5
f 299/1/5 295/1/5 289/1/5
f 300/1/5 296/1/5 299/1/5
f 301/1/5 296/1/5 300/1/5
f 302/1/5 298/1/5 297/1/5
f 303/1/5 294/1/5 298/1/5
f 303/1/5 298/1/5 302/1/5
f 304/1/5 294/1/5 303/1/5
f 305/1/5 301/1/5 300/1/5
f 305/1/5 302/1/5 301/1/5
f 305/1/5 303/1/5 302/1/5
f 306/1/5 303/1/5 305/1/5
f 309/2/5 308/2/5 307/2/5
f 311/2/5 309/2/5 307/2/5
f 311/2/5 310/2/5 309/2/5
f 312/2/5 310/2/5 311/2/5
f 313/2/5 310/2/5 312/2/5
f 314/2/5 310/2/5 313/2/5
f 317/1/5 316/1/5 315/1/5
f 318/1/5 316/1/5 317/1/5
f 319/1/5 316/1/5 318/1/5
f 320/1/5 316/1/5 319/1/5
f 321/2/5 313/2/5 312/2/5
f 322/2/5 313/2/5 321/2/5
f 323/1/5 319/1/5 318/1/5
f 324/1/5 319/1/5 323/1/5
f 325/2/5 324/2/5 323/2/5
f 326/2/5 324/2/5 325/2/5
f 327/2/6 328/2/6 329/2/6
f 329/2/6 328/2/6 330/2/6
f 327/2/6 329/2/6 332/2/6
f 332/2/6 329/2/6 333/2/6
f 330/2/6 331/2/6 334/2/6
f 334/2/6 331/2/6 335/2/6
f 333/2/6 334/2/6 336/2/6
f 336/2/6 334/2/6 337/2/6
f 338/1/6 339/1/6 341/1/6
f 341/1/6 339/1/6 342/1/6
f 342/1/6 339/1/6 343/1/6
f 343/1/6 339/1/6 344/1/6
f 340/1/6 341/1/6 347/1/6
f 341/1/6 342/1/6 347/1/6
f 347/1/6 342/1/6 348/1/6
f 348/1/6 342/1/6 349/1/6
f 343/1/6 344/1/6 350/1/6
f 344/1/6 345/1/6 350/1/6
f 350/1/6 345/1/6 351/1/6
f 351/1/6 345/1/6 352/1/6
f 347/1/6 348/1/6 354/1/6
f 346/1/6 347/1/6 354/1/6
f 354/1/6 348/1/6 355/1/6
f 352/1/6 353/1/6 356/1/6
f 351/1/6 352/1/6 356/1/6
f 356/1/6 353/1/6 357/1/6
f 358/2/6 359/2/6 360/2/6
f 360/2/6 359/2/6 361/2/6
f 346/1/6 354/1/6 362/1/6
f 357/1/6 353/1/6 365/1/6
f 362/1/6 363/1/6 366/1/6
f 346/1/6 362/1/6 366/1/6
f 366/1/6 363/1/6 367/1/6
f 367/1/6 363/1/6 368/1/6
f 364/1/6 365/1/6 371/1/6
f 365/1/6 353/1/6 372/1/6
f 371/1/6 365/1/6 372/1/6
f 372/1/6 353/1/6 373/1/6
f 368/1/6 369/1/6 374/1/6
f 367/1/6 368/1/6 374/1/6
f 374/1/6 369/1/6 375/1/6
f 375/1/6 369/1/6 376/1/6
f 370/1/6 371/1/6 377/1/6
f 371/1/6 372/1/6 377/1/6
f 377/1/6 372/1/6 378/1/6
f 378/1/6 372/1/6 379/1/6
f 375/1/6 376/1/6 380/1/6
f 377/1/6 378/1/6 380/1/6
f 376/1/6 377/1/6 380/1/6
f 380/1/6 378/1/6 381/1/6
f 381/1/6 378/1/6 382/1/6
f 382/1/6 378/1/6 383/1/6
f 381/1/6 382/1/6 384/1/6
f 384/1/6 382/1/6 385/1/6
f 384/2/6 385/2/6 386/2/6
f 386/2/6 385/2/6 387/2/6
f 388/1/6 389/1/6 391/1/6
f 391/1/6 389/1/6 392/1/6
f 390/1/6 391/1/6 395/1/6
f 392/1/6 393/1/6 395/1/6
f 391/1/6 392/1/6 395/1/6
f 395/1/6 393/1/6 396/1/6
f 396/1/6 393/1/6 397/1/6
f 397/1/6 393/1/6 398/1/6
f 394/1/6 395/1/6 400/1/6
f 395/1/6 396/1/6 400/1/6
f 396/2/6 397/2/6 401/2/6
f 400/1/6 396/1/6 401/1/6
f 398/1/6 399/1/6 402/1/6
f 401/2/6 397/2/6 402/2/6
f 397/1/6 398/1/6 402/1/6
f 402/1/6 399/1/6 403/1/6
f 400/2/6 401/2/6 404/2/6
f 394/1/6 400/1/6 404/1/6
f 402/2/6 403/2/6 404/2/6
f 401/2/6 402/2/6 404/2/6
f 404/2/6 403/2/6 405/2/6
f 405/2/6 403/2/6 406/2/6
f 403/1/6 399/1/6 407/1/6
f 406/2/6 403/2/6 407/2/6
f 394/1/6 404/1/6 408/1/6
f 404/1/6 405/1/6 408/1/6
f 408/1/6 405/1/6 409/1/6
f 405/2/6 406/2/6 410/2/6
f 409/1/6 405/1/6 410/1/6
f 406/1/6 407/1/6 411/1/6
f 410/2/6 406/2/6 411/2/6
f 407/1/6 399/1/6 412/1/6
f 411/1/6 407/1/6 412/1/6
f 412/1/6 399/1/6 413/1/6
f 410/1/6 411/1/6 414/1/6
f 411/1/6 412/1/6 414/1/6
f 409/1/6 410/1/6 414/1/6
f 414/1/6 412/1/6 415/1/6
f 415/1/6 412/1/6 416/1/6
f 416/1/6 412/1/6 417/1/6
f 415/1/6 416/1/6 418/1/6
f 418/1/6 416/1/6 419/1/6
